<?xml version="1.0" encoding="UTF-8"?> <!-- Creator: CorelDRAW 2019 (64-Bit) --> <svg xmlns="http://www.w3.org/2000/svg" xmlns:xlink="http://www.w3.org/1999/xlink" xmlns:xodm="http://www.corel.com/coreldraw/odm/2003" xml:space="preserve" width="38.433mm" height="40.3097mm" version="1.1" style="shape-rendering:geometricPrecision; text-rendering:geometricPrecision; image-rendering:optimizeQuality; fill-rule:evenodd; clip-rule:evenodd" viewBox="0 0 4444.72 4661.76"> <defs> <style type="text/css"> <![CDATA[ .fil0 {fill:#019AEE} ]]> </style> </defs> <g id="Слой_x0020_1"> <metadata id="CorelCorpID_0Corel-Layer"></metadata> <path class="fil0" d="M3156.91 4419.68l0 -737.25c0,-34.35 15.88,-61.24 40.36,-80.08 26.59,-20.45 63.38,-31.1 100.41,-31.1l904.96 0 0 -3329.18 -2599.15 0 0 835.91c0,34.36 -15.88,61.25 -40.36,80.08 -26.59,20.45 -63.36,31.1 -100.41,31.1l-1220.65 0 0 3230.52 2914.84 0zm-451.56 -3065.56c-22.57,-6.79 -43.83,-13.18 -61.62,-17.32l-10.52 -2.46 0.89 -10.74c2.91,-34.98 18.62,-73.26 39.37,-107.98 24.93,-41.71 57.43,-78.7 83.67,-98.56 56.55,-42.82 98.35,-65.57 143.53,-77.69 44.98,-12.09 92.21,-13.36 160.24,-13.36 89.45,0 169.04,34.84 226.27,92.08 57.23,57.22 92.08,136.81 92.08,226.27l0 59.19c0,195.56 -121.15,301.31 -237.28,402.65 -31.09,27.13 -61.81,53.96 -89.52,82.02 -20.48,20.75 -42.06,39.76 -62.18,57.48 -19.38,17.06 -37.39,32.91 -50.89,47.13l217.52 0 0 -98.66 242.08 0 0 12.52c0,17.69 0.57,35.3 1.16,53.82 0.71,22.22 1.46,45.67 1.46,67.11 0,103.84 -15.1,207.28 -113.79,207.28l-552.46 0c-34.35,0 -61.24,-15.89 -80.06,-40.37 -20.46,-26.59 -31.1,-63.36 -31.1,-100.39 0,-134.26 10.99,-144.63 75.88,-205.8 12.43,-11.73 26.98,-25.44 43.69,-42.26l148.33 -138.44c44.27,-44.32 82.5,-77.61 115.23,-106.1 92.53,-80.54 139.73,-121.62 139.73,-257.18 0,-26.5 -22.11,-51.58 -53.87,-68.36 -19.11,-10.1 -41.56,-17.08 -64.9,-19.59 -23.19,-2.51 -47.21,-0.57 -69.6,7.14 -41.6,14.32 -77.81,49.08 -92.76,113.25l-2.29 9.85 -10.13 -0.23c-44.1,-0.98 -99.18,-17.56 -148.15,-32.29zm-1321.55 1936.35l-229.56 0 0 -1080.62 242.09 0 0 51c47.92,-24.97 104.42,-51 174.92,-51 166.92,0 231.25,56.46 290.29,108.26 14.88,13.06 29.4,25.8 45.06,37.01 9.88,-7.39 17.07,-14.59 24.55,-22.1 8.63,-8.66 17.62,-17.68 31.13,-27.88 89.99,-67.98 179.46,-96.07 262.86,-96.07 70.75,0 136.99,20.26 195.38,53.57 58.15,33.17 108.47,79.28 147.65,131.16 57.21,75.74 90.92,164.09 90.92,242.92l0 653.76 -242.06 0 0 -663.63c0,-23.26 -4.6,-44.14 -12.09,-62.58 -8.82,-21.77 -21.67,-40.21 -35.75,-55.19 -55.16,-58.67 -100.94,-58.12 -163.04,-57.38 -9.53,0.1 -19.19,0.23 -23.25,0.23 -33.2,0 -75.62,22.32 -107.92,58.41 -27.49,30.73 -47.28,71.33 -47.28,116.5l0 663.63 -242.06 0 0 -663.63c0,-23.26 -4.6,-44.14 -12.09,-62.58 -8.82,-21.77 -21.67,-40.21 -35.76,-55.19 -55.15,-58.67 -100.93,-58.12 -163.03,-57.38 -9.53,0.1 -19.19,0.23 -23.25,0.23 -33.2,0 -75.62,22.32 -107.92,58.41 -27.49,30.74 -47.27,71.33 -47.27,116.5l0 663.63 -12.52 0zm-22.39 -2343.39l0 -806.31c0,-37.02 10.65,-73.82 31.1,-100.41 18.84,-24.48 45.73,-40.36 80.08,-40.36l2860.96 0c31.17,0 58.95,12.2 78.96,32.22 20.01,20.01 32.21,47.8 32.21,78.95l0 3590.99c0,31.17 -12.2,58.95 -32.21,78.96 -20.02,20.01 -47.8,32.21 -78.96,32.21l-934.56 0 0 697.79c0,46.61 -14.25,84.17 -40.36,110.28 -26.1,26.1 -63.66,40.35 -110.27,40.35l-3107.59 0c-37.03,0 -73.82,-10.64 -100.41,-31.1 -24.48,-18.83 -40.36,-45.72 -40.36,-80.08l0 -3492.34c0,-31.16 12.2,-58.95 32.21,-78.95 20.02,-20.01 47.8,-32.21 78.96,-32.21l1250.24 0z"></path> </g> </svg> 