<svg width="14" height="14" viewBox="0 0 14 14" fill="none" xmlns="http://www.w3.org/2000/svg">
<path d="M13.5996 10.9824C14.1327 11.5155 14.1327 12.3828 13.5996 12.9159C13.5988 12.9168 13.598 12.9175 13.5971 12.9184L12.6617 13.8422C12.5551 13.9474 12.4162 14 12.2775 14C12.1362 14 11.9953 13.9457 11.8882 13.8374C11.6761 13.6225 11.6782 13.2762 11.8931 13.064L12.4404 12.5234H3.66408C2.45786 12.5234 1.47659 11.5421 1.47659 10.3359V1.54631L0.930993 2.08464C0.715982 2.29676 0.3697 2.29441 0.157573 2.0794C-0.0545546 1.86439 -0.0522048 1.51811 0.162806 1.30598L1.08672 0.394561C1.61832 -0.129883 2.48328 -0.129883 3.01488 0.394561L3.9388 1.30598C4.15381 1.51811 4.15616 1.86439 3.94403 2.0794C3.83701 2.18782 3.69591 2.24218 3.55471 2.24218C3.41596 2.24218 3.27721 2.18974 3.17061 2.08464L2.57033 1.49237V10.3359C2.57033 10.939 3.06102 11.4297 3.66408 11.4297H12.4959L11.8931 10.8344C11.6782 10.6222 11.676 10.2759 11.8882 10.061C12.1005 9.84619 12.4467 9.84394 12.6617 10.0562L13.5971 10.98C13.598 10.9808 13.5988 10.9816 13.5996 10.9824ZM12.3594 0H5.27736C4.97455 0 4.72942 0.246093 4.73049 0.548903C4.73166 0.850111 4.97615 1.09375 5.27736 1.09375H12.3594C12.6614 1.09375 12.9063 1.33856 12.9063 1.64062V8.74998C12.9063 9.05119 13.1499 9.29579 13.4511 9.29686C13.7539 9.29792 14 9.05279 14 8.74998V1.64062C14 0.734541 13.2655 0 12.3594 0ZM8.03907 9.3759C8.34114 9.3759 8.58595 9.13109 8.58595 8.82902V6.39501C8.58595 5.56572 7.91133 4.8911 7.08204 4.8911C6.71878 4.8911 6.38521 5.02056 6.12501 5.23578C5.86482 5.02056 5.53125 4.8911 5.16798 4.8911C4.95938 4.8911 4.7605 4.93394 4.57977 5.01105C4.48247 4.92197 4.35323 4.86718 4.21096 4.86718C3.90889 4.86718 3.66408 5.11199 3.66408 5.41405V8.83201C3.66408 9.13408 3.90889 9.37889 4.21096 9.37889C4.51302 9.37889 4.75783 9.13408 4.75783 8.83201V6.39501C4.75783 6.16889 4.94186 5.98485 5.16798 5.98485C5.3941 5.98485 5.57814 6.16889 5.57814 6.39501V8.83201C5.57814 9.13408 5.82295 9.37889 6.12501 9.37889C6.42708 9.37889 6.67189 9.13408 6.67189 8.83201V6.39501C6.67189 6.16889 6.85592 5.98485 7.08204 5.98485C7.30816 5.98485 7.4922 6.16889 7.4922 6.39501V8.82902C7.4922 9.13109 7.73701 9.3759 8.03907 9.3759ZM10.5205 2.95312C10.5176 2.95312 10.5149 2.95355 10.512 2.95355C10.5092 2.95355 10.5064 2.95312 10.5035 2.95312C9.80808 2.95312 9.2422 3.51965 9.2422 4.21595C9.2422 4.51791 9.48701 4.76282 9.78907 4.76282C10.0911 4.76282 10.3359 4.51791 10.3359 4.21595C10.3359 4.12431 10.4127 4.04687 10.5035 4.04687C10.5064 4.04687 10.5092 4.04644 10.5121 4.04644C10.5149 4.04644 10.5176 4.04687 10.5205 4.04687C10.6076 4.04687 10.6817 4.118 10.6877 4.20463C10.6769 4.24468 10.593 4.49238 10.069 5.06884C9.744 5.42623 9.42463 5.71729 9.42153 5.72007C9.25416 5.87195 9.19755 6.11121 9.27894 6.32195C9.36033 6.53279 9.56306 6.67186 9.78907 6.67186H11.2656C11.5677 6.67186 11.8125 6.42705 11.8125 6.12499C11.8125 5.82293 11.5677 5.57811 11.2656 5.57811H11.0775C11.5631 5.00646 11.7818 4.58103 11.7818 4.21595C11.7818 3.51965 11.216 2.95312 10.5205 2.95312Z" fill="#EA9635"></path>
</svg>