<?xml version="1.0" encoding="utf-8"?><svg xmlns="http://www.w3.org/2000/svg" xmlns:xlink="http://www.w3.org/1999/xlink"><symbol viewBox="0 0 296.75 296.75" id="1" xmlns="http://www.w3.org/2000/svg"><path d="M296.75 149.188L215 98.875v33.5H0v33h215v32.5z"/></symbol><symbol viewBox="0 0 1280 640" id="right" xmlns="http://www.w3.org/2000/svg"><path d="M928 46.6c-10.6 2.1-22.3 8-29.3 15-9.9 9.7-14.8 19.6-16.8 33.6-1 7.2-.9 9.7.5 16.4 2.2 10.8 7.5 21.2 14.4 28.2 3.3 3.3 39.1 29.7 85.1 62.7l79.4 57-508.4.5c-476.3.5-508.7.6-513.2 2.2-14.6 5.2-26.5 15.2-33 27.5-11.4 21.7-7.7 47.2 9.3 64.4 7 7.1 12.6 10.8 21.7 14.2l5.8 2.2 507.8.5 507.8.5-75.2 61.5c-41.4 33.8-77.6 63.8-80.4 66.7-2.9 2.9-6.8 8.4-8.9 12.5-11.2 22.4-7.3 47 10.5 64.9 10.4 10.5 23.3 15.9 38.2 15.9 9.9 0 18.6-2.2 27-6.8 7-3.9 284.7-230.3 294.2-239.9 16-16.2 19.9-42.2 9.3-63.3-4.6-9.4-11.9-16.3-32.4-31.1-108.6-78.2-270.1-194-274.7-197-8.3-5.4-16.6-8-27.2-8.4-4.9-.2-10.1-.1-11.5.1z"/></symbol></svg>