<?xml version="1.0" encoding="utf-8"?><svg xmlns="http://www.w3.org/2000/svg" xmlns:xlink="http://www.w3.org/1999/xlink"><symbol viewBox="0 0 296.75 296.75" id="1" xmlns="http://www.w3.org/2000/svg"><path d="M296.75 149.188L215 98.875v33.5H0v33h215v32.5z"/></symbol><symbol viewBox="0 0 4444.72 4661.76" shape-rendering="geometricPrecision" text-rendering="geometricPrecision" image-rendering="optimizeQuality" fill-rule="evenodd" clip-rule="evenodd" id="area" xmlns="http://www.w3.org/2000/svg"><path d="M3156.91 4419.68v-737.25c0-34.35 15.88-61.24 40.36-80.08 26.59-20.45 63.38-31.1 100.41-31.1h904.96V242.07H1603.49v835.91c0 34.36-15.88 61.25-40.36 80.08-26.59 20.45-63.36 31.1-100.41 31.1H242.07v3230.52h2914.84zm-451.56-3065.56c-22.57-6.79-43.83-13.18-61.62-17.32l-10.52-2.46.89-10.74c2.91-34.98 18.62-73.26 39.37-107.98 24.93-41.71 57.43-78.7 83.67-98.56 56.55-42.82 98.35-65.57 143.53-77.69 44.98-12.09 92.21-13.36 160.24-13.36 89.45 0 169.04 34.84 226.27 92.08 57.23 57.22 92.08 136.81 92.08 226.27v59.19c0 195.56-121.15 301.31-237.28 402.65-31.09 27.13-61.81 53.96-89.52 82.02-20.48 20.75-42.06 39.76-62.18 57.48-19.38 17.06-37.39 32.91-50.89 47.13h217.52v-98.66h242.08v12.52c0 17.69.57 35.3 1.16 53.82.71 22.22 1.46 45.67 1.46 67.11 0 103.84-15.1 207.28-113.79 207.28h-552.46c-34.35 0-61.24-15.89-80.06-40.37-20.46-26.59-31.1-63.36-31.1-100.39 0-134.26 10.99-144.63 75.88-205.8 12.43-11.73 26.98-25.44 43.69-42.26l148.33-138.44c44.27-44.32 82.5-77.61 115.23-106.1 92.53-80.54 139.73-121.62 139.73-257.18 0-26.5-22.11-51.58-53.87-68.36-19.11-10.1-41.56-17.08-64.9-19.59-23.19-2.51-47.21-.57-69.6 7.14-41.6 14.32-77.81 49.08-92.76 113.25l-2.29 9.85-10.13-.23c-44.1-.98-99.18-17.56-148.15-32.29zM1383.8 3290.47h-229.56V2209.85h242.09v51c47.92-24.97 104.42-51 174.92-51 166.92 0 231.25 56.46 290.29 108.26 14.88 13.06 29.4 25.8 45.06 37.01 9.88-7.39 17.07-14.59 24.55-22.1 8.63-8.66 17.62-17.68 31.13-27.88 89.99-67.98 179.46-96.07 262.86-96.07 70.75 0 136.99 20.26 195.38 53.57 58.15 33.17 108.47 79.28 147.65 131.16 57.21 75.74 90.92 164.09 90.92 242.92v653.76h-242.06v-663.63c0-23.26-4.6-44.14-12.09-62.58-8.82-21.77-21.67-40.21-35.75-55.19-55.16-58.67-100.94-58.12-163.04-57.38-9.53.1-19.19.23-23.25.23-33.2 0-75.62 22.32-107.92 58.41-27.49 30.73-47.28 71.33-47.28 116.5v663.63h-242.06v-663.63c0-23.26-4.6-44.14-12.09-62.58-8.82-21.77-21.67-40.21-35.76-55.19-55.15-58.67-100.93-58.12-163.03-57.38-9.53.1-19.19.23-23.25.23-33.2 0-75.62 22.32-107.92 58.41-27.49 30.74-47.27 71.33-47.27 116.5v663.63h-12.52zm-22.39-2343.39V140.77c0-37.02 10.65-73.82 31.1-100.41C1411.35 15.88 1438.24 0 1472.59 0h2860.96c31.17 0 58.95 12.2 78.96 32.22 20.01 20.01 32.21 47.8 32.21 78.95v3590.99c0 31.17-12.2 58.95-32.21 78.96-20.02 20.01-47.8 32.21-78.96 32.21h-934.56v697.79c0 46.61-14.25 84.17-40.36 110.28-26.1 26.1-63.66 40.35-110.27 40.35H140.77c-37.03 0-73.82-10.64-100.41-31.1C15.88 4611.82 0 4584.93 0 4550.57V1058.23c0-31.16 12.2-58.95 32.21-78.95 20.02-20.01 47.8-32.21 78.96-32.21h1250.24z"/></symbol><symbol viewBox="0 0 1280 640" id="right" xmlns="http://www.w3.org/2000/svg"><path d="M928 46.6c-10.6 2.1-22.3 8-29.3 15-9.9 9.7-14.8 19.6-16.8 33.6-1 7.2-.9 9.7.5 16.4 2.2 10.8 7.5 21.2 14.4 28.2 3.3 3.3 39.1 29.7 85.1 62.7l79.4 57-508.4.5c-476.3.5-508.7.6-513.2 2.2-14.6 5.2-26.5 15.2-33 27.5-11.4 21.7-7.7 47.2 9.3 64.4 7 7.1 12.6 10.8 21.7 14.2l5.8 2.2 507.8.5 507.8.5-75.2 61.5c-41.4 33.8-77.6 63.8-80.4 66.7-2.9 2.9-6.8 8.4-8.9 12.5-11.2 22.4-7.3 47 10.5 64.9 10.4 10.5 23.3 15.9 38.2 15.9 9.9 0 18.6-2.2 27-6.8 7-3.9 284.7-230.3 294.2-239.9 16-16.2 19.9-42.2 9.3-63.3-4.6-9.4-11.9-16.3-32.4-31.1-108.6-78.2-270.1-194-274.7-197-8.3-5.4-16.6-8-27.2-8.4-4.9-.2-10.1-.1-11.5.1z"/></symbol></svg>