<?xml version="1.0" encoding="utf-8"?><svg xmlns="http://www.w3.org/2000/svg" xmlns:xlink="http://www.w3.org/1999/xlink"><symbol fill="none" viewBox="0 0 17 16" id="Message" xmlns="http://www.w3.org/2000/svg"><path d="M12.95 5.796L9.753 8.372a1.667 1.667 0 01-2.06 0L4.466 5.796" stroke="#E2B024" stroke-width="1.5" stroke-linecap="round" stroke-linejoin="round"/><path clip-rule="evenodd" d="M5.166 1.625h7.07c1.02.011 1.99.442 2.686 1.193a3.763 3.763 0 01.994 2.778v4.896a3.763 3.763 0 01-.994 2.777 3.718 3.718 0 01-2.685 1.193H5.166c-2.19 0-3.666-1.781-3.666-3.97V5.596c0-2.19 1.476-3.971 3.666-3.971z" stroke="#E2B024" stroke-width="1.5" stroke-linecap="round" stroke-linejoin="round"/></symbol><symbol viewBox="0 0 4444.72 4661.76" shape-rendering="geometricPrecision" text-rendering="geometricPrecision" image-rendering="optimizeQuality" fill-rule="evenodd" clip-rule="evenodd" id="area" xmlns="http://www.w3.org/2000/svg"><path d="M3156.91 4419.68v-737.25c0-34.35 15.88-61.24 40.36-80.08 26.59-20.45 63.38-31.1 100.41-31.1h904.96V242.07H1603.49v835.91c0 34.36-15.88 61.25-40.36 80.08-26.59 20.45-63.36 31.1-100.41 31.1H242.07v3230.52h2914.84zm-451.56-3065.56c-22.57-6.79-43.83-13.18-61.62-17.32l-10.52-2.46.89-10.74c2.91-34.98 18.62-73.26 39.37-107.98 24.93-41.71 57.43-78.7 83.67-98.56 56.55-42.82 98.35-65.57 143.53-77.69 44.98-12.09 92.21-13.36 160.24-13.36 89.45 0 169.04 34.84 226.27 92.08 57.23 57.22 92.08 136.81 92.08 226.27v59.19c0 195.56-121.15 301.31-237.28 402.65-31.09 27.13-61.81 53.96-89.52 82.02-20.48 20.75-42.06 39.76-62.18 57.48-19.38 17.06-37.39 32.91-50.89 47.13h217.52v-98.66h242.08v12.52c0 17.69.57 35.3 1.16 53.82.71 22.22 1.46 45.67 1.46 67.11 0 103.84-15.1 207.28-113.79 207.28h-552.46c-34.35 0-61.24-15.89-80.06-40.37-20.46-26.59-31.1-63.36-31.1-100.39 0-134.26 10.99-144.63 75.88-205.8 12.43-11.73 26.98-25.44 43.69-42.26l148.33-138.44c44.27-44.32 82.5-77.61 115.23-106.1 92.53-80.54 139.73-121.62 139.73-257.18 0-26.5-22.11-51.58-53.87-68.36-19.11-10.1-41.56-17.08-64.9-19.59-23.19-2.51-47.21-.57-69.6 7.14-41.6 14.32-77.81 49.08-92.76 113.25l-2.29 9.85-10.13-.23c-44.1-.98-99.18-17.56-148.15-32.29zM1383.8 3290.47h-229.56V2209.85h242.09v51c47.92-24.97 104.42-51 174.92-51 166.92 0 231.25 56.46 290.29 108.26 14.88 13.06 29.4 25.8 45.06 37.01 9.88-7.39 17.07-14.59 24.55-22.1 8.63-8.66 17.62-17.68 31.13-27.88 89.99-67.98 179.46-96.07 262.86-96.07 70.75 0 136.99 20.26 195.38 53.57 58.15 33.17 108.47 79.28 147.65 131.16 57.21 75.74 90.92 164.09 90.92 242.92v653.76h-242.06v-663.63c0-23.26-4.6-44.14-12.09-62.58-8.82-21.77-21.67-40.21-35.75-55.19-55.16-58.67-100.94-58.12-163.04-57.38-9.53.1-19.19.23-23.25.23-33.2 0-75.62 22.32-107.92 58.41-27.49 30.73-47.28 71.33-47.28 116.5v663.63h-242.06v-663.63c0-23.26-4.6-44.14-12.09-62.58-8.82-21.77-21.67-40.21-35.76-55.19-55.15-58.67-100.93-58.12-163.03-57.38-9.53.1-19.19.23-23.25.23-33.2 0-75.62 22.32-107.92 58.41-27.49 30.74-47.27 71.33-47.27 116.5v663.63h-12.52zm-22.39-2343.39V140.77c0-37.02 10.65-73.82 31.1-100.41C1411.35 15.88 1438.24 0 1472.59 0h2860.96c31.17 0 58.95 12.2 78.96 32.22 20.01 20.01 32.21 47.8 32.21 78.95v3590.99c0 31.17-12.2 58.95-32.21 78.96-20.02 20.01-47.8 32.21-78.96 32.21h-934.56v697.79c0 46.61-14.25 84.17-40.36 110.28-26.1 26.1-63.66 40.35-110.27 40.35H140.77c-37.03 0-73.82-10.64-100.41-31.1C15.88 4611.82 0 4584.93 0 4550.57V1058.23c0-31.16 12.2-58.95 32.21-78.95 20.02-20.01 47.8-32.21 78.96-32.21h1250.24z" fill="#019aee"/></symbol><symbol fill="none" viewBox="0 0 14 14" id="one" xmlns="http://www.w3.org/2000/svg"><path d="M13.6 10.982a1.37 1.37 0 010 1.934l-.003.002-.935.924a.545.545 0 01-.774-.005.547.547 0 01.005-.773l.547-.54H3.664a2.19 2.19 0 01-2.187-2.188v-8.79l-.546.539a.547.547 0 01-.768-.779l.924-.911a1.378 1.378 0 011.928 0l.924.911a.547.547 0 01-.768.779l-.6-.593v8.844c0 .603.49 1.094 1.093 1.094h8.832l-.603-.596a.547.547 0 11.769-.778l.935.924.003.002zM12.36 0H5.276a.547.547 0 000 1.094h7.082c.302 0 .547.245.547.547V8.75a.547.547 0 101.094 0V1.64A1.64 1.64 0 0012.36 0zM8.04 9.376a.547.547 0 00.546-.547V6.395a1.506 1.506 0 00-2.461-1.16 1.497 1.497 0 00-1.545-.224.547.547 0 00-.916.403v3.418a.547.547 0 101.094 0V6.395a.41.41 0 01.82 0v2.437a.547.547 0 101.094 0V6.395a.41.41 0 01.82 0v2.434c0 .302.245.547.547.547zm2.48-6.423h-.016c-.696 0-1.262.567-1.262 1.263a.547.547 0 001.094 0 .17.17 0 01.168-.17h.016a.17.17 0 01.168.159c-.011.04-.095.287-.619.864a10.96 10.96 0 01-.647.651.547.547 0 00.367.952h1.477a.547.547 0 100-1.094h-.188c.485-.572.704-.997.704-1.362 0-.696-.566-1.263-1.261-1.263z" fill="#EA9635"/></symbol></svg>