<?xml version="1.0" encoding="utf-8"?><svg xmlns="http://www.w3.org/2000/svg" xmlns:xlink="http://www.w3.org/1999/xlink"><symbol fill="none" viewBox="0 0 17 16" id="Message" xmlns="http://www.w3.org/2000/svg"><path d="M12.95 5.796L9.753 8.372a1.667 1.667 0 01-2.06 0L4.466 5.796" stroke="#E2B024" stroke-width="1.5" stroke-linecap="round" stroke-linejoin="round"/><path clip-rule="evenodd" d="M5.166 1.625h7.07c1.02.011 1.99.442 2.686 1.193a3.763 3.763 0 01.994 2.778v4.896a3.763 3.763 0 01-.994 2.777 3.718 3.718 0 01-2.685 1.193H5.166c-2.19 0-3.666-1.781-3.666-3.97V5.596c0-2.19 1.476-3.971 3.666-3.971z" stroke="#E2B024" stroke-width="1.5" stroke-linecap="round" stroke-linejoin="round"/></symbol><symbol fill="none" viewBox="0 0 14 14" id="one" xmlns="http://www.w3.org/2000/svg"><path d="M13.6 10.982a1.37 1.37 0 010 1.934l-.003.002-.935.924a.545.545 0 01-.774-.005.547.547 0 01.005-.773l.547-.54H3.664a2.19 2.19 0 01-2.187-2.188v-8.79l-.546.539a.547.547 0 01-.768-.779l.924-.911a1.378 1.378 0 011.928 0l.924.911a.547.547 0 01-.768.779l-.6-.593v8.844c0 .603.49 1.094 1.093 1.094h8.832l-.603-.596a.547.547 0 11.769-.778l.935.924.003.002zM12.36 0H5.276a.547.547 0 000 1.094h7.082c.302 0 .547.245.547.547V8.75a.547.547 0 101.094 0V1.64A1.64 1.64 0 0012.36 0zM8.04 9.376a.547.547 0 00.546-.547V6.395a1.506 1.506 0 00-2.461-1.16 1.497 1.497 0 00-1.545-.224.547.547 0 00-.916.403v3.418a.547.547 0 101.094 0V6.395a.41.41 0 01.82 0v2.437a.547.547 0 101.094 0V6.395a.41.41 0 01.82 0v2.434c0 .302.245.547.547.547zm2.48-6.423h-.016c-.696 0-1.262.567-1.262 1.263a.547.547 0 001.094 0 .17.17 0 01.168-.17h.016a.17.17 0 01.168.159c-.011.04-.095.287-.619.864a10.96 10.96 0 01-.647.651.547.547 0 00.367.952h1.477a.547.547 0 100-1.094h-.188c.485-.572.704-.997.704-1.362 0-.696-.566-1.263-1.261-1.263z" fill="#EA9635"/></symbol></svg>